<svg width="33" height="32" viewBox="0 0 33 32" fill="none" xmlns="http://www.w3.org/2000/svg">
<path fill-rule="evenodd" clip-rule="evenodd" d="M10.3961 28.8469L2.8 31.2672L0.5 32L3.73112 22.4448C3.1889 21.4469 2.7594 20.3898 2.45339 19.295C2.08218 17.9667 1.89488 16.5939 1.89488 15.2146C1.89488 11.1558 3.50778 7.30793 6.38307 4.45234C9.26771 1.58744 13.1397 0 17.202 0C21.263 0 25.1329 1.58935 28.0151 4.45465C30.8891 7.31198 32.5 11.1607 32.5 15.2194C32.5 19.2774 30.8874 23.1249 28.013 25.9803C25.1294 28.8448 21.2587 30.4327 17.1974 30.4327C15.9089 30.4327 14.6253 30.2734 13.3768 29.9537C12.3472 29.69 11.348 29.3184 10.3961 28.8469L10.3961 28.8469Z" fill="white"/>
<path fill-rule="evenodd" clip-rule="evenodd" d="M31.2796 15.2183C31.2796 11.3533 29.7035 7.85392 27.1552 5.32051C24.6072 2.78745 21.0881 1.2207 17.202 1.2207C13.3125 1.2207 9.79169 2.78692 7.24252 5.31861C4.69223 7.85144 3.11525 11.3502 3.11525 15.2134C3.11525 16.5102 3.29439 17.7686 3.62864 18.9646C3.96077 20.1529 4.44665 21.278 5.06255 22.3165L2.6228 29.5313L2.42993 30.1017L3.00299 29.9192L10.507 27.5282C11.5005 28.0635 12.5634 28.483 13.6793 28.7688C14.8036 29.0568 15.9819 29.2097 17.1974 29.2097C21.0852 29.2097 24.6049 27.6434 27.1534 25.1118C29.703 22.5791 31.2796 19.0807 31.2796 15.2183L31.2796 15.2183Z" fill="#00D051"/>
<path fill-rule="evenodd" clip-rule="evenodd" d="M14.9113 11.3985C14.8495 11.2738 14.4927 10.411 14.1638 9.61563C13.9536 9.10719 13.753 8.62233 13.7137 8.52854C13.3433 7.64435 12.934 7.671 12.62 7.69143C12.5993 7.69276 12.5795 7.69406 12.5529 7.69406C12.4434 7.69406 12.3357 7.68724 12.2241 7.68017C12.0846 7.6713 11.9398 7.66211 11.8029 7.66211C11.621 7.66211 11.3731 7.6999 11.1122 7.8222C10.9186 7.91288 10.719 8.04944 10.5363 8.25044C10.5096 8.27927 10.4895 8.30041 10.4677 8.32334C10.033 8.78091 9.08521 9.77832 9.08521 11.6939C9.08521 13.7033 10.5325 15.6142 10.7451 15.8948L10.7444 15.8954L10.7464 15.898L10.7487 15.9004C10.7571 15.9111 10.7878 15.9561 10.8332 16.0226C11.3677 16.8053 13.8249 20.4033 17.5602 21.864C20.9489 23.1879 21.5621 23.0393 22.1098 22.9067C22.2031 22.8841 22.2941 22.862 22.3926 22.8529C22.8361 22.8112 23.5617 22.5071 24.1723 22.0802C24.6788 21.7261 25.121 21.2786 25.2903 20.8073C25.4413 20.386 25.5267 19.9946 25.5663 19.6724C25.6238 19.2044 25.5783 18.8361 25.4932 18.6939L25.492 18.6927C25.3627 18.4794 25.139 18.3736 24.8035 18.215C24.7443 18.187 24.6811 18.1572 24.6203 18.1277L24.6205 18.1273C24.3891 18.0095 23.5886 17.6176 22.9044 17.2938C22.4622 17.0845 22.0693 16.9047 21.9137 16.8488C21.6949 16.7701 21.5042 16.7106 21.2998 16.7337C21.068 16.7599 20.8658 16.8794 20.6784 17.1636L20.6778 17.1632C20.5837 17.3048 20.4179 17.5171 20.2367 17.7393C19.9496 18.0914 19.6072 18.4867 19.4612 18.6527V18.6539C19.3989 18.7249 19.3452 18.7636 19.2925 18.7699C19.2194 18.7788 19.1189 18.7488 18.9797 18.6803C18.8907 18.6358 18.804 18.5983 18.697 18.5521C18.1559 18.3183 17.102 17.863 15.9008 16.7982C15.4711 16.4175 15.093 16.0012 14.7771 15.6107C14.266 14.9786 13.9206 14.4154 13.7833 14.1782C13.675 13.9922 13.7954 13.8716 13.9065 13.7603L13.906 13.7596C14.0289 13.6367 14.1679 13.4693 14.3075 13.3014C14.3711 13.2249 14.4347 13.1484 14.512 13.0592L14.5132 13.058C14.7014 12.8388 14.7795 12.6792 14.8848 12.4638C14.9031 12.4263 14.9223 12.387 14.9417 12.3484L14.9429 12.3472C15.0355 12.1604 15.0592 11.9826 15.0419 11.816C15.0259 11.661 14.9741 11.5227 14.9109 11.3987L14.9113 11.3985Z" fill="white"/>
</svg>
